# xmcd
#
# Track frame offsets:
#	150
#	46665
#	59432
#	76712
#	92985
#	110782
#	122650
#
# Disc length: 2218 seconds
# Revision: 0
# Processed by: cddbd v1.5.2PL0 Copyright (c) Steve Scherf et al.
# Submitted via: dBpowerAMP V12.0
#
DISCID=5408a807
DTITLE=Funkadelic - Maggot Brain
DYEAR=1971
DGENRE=Funk
TTITLE0=Maggot Brain
TTITLE1=Can You Get to That
TTITLE2=Hit It and Quit It
TTITLE3=You and Your Folks, Me and My Folks
TTITLE4=Super Stupid
TTITLE5=Back in Our Minds
TTITLE6=Wars of Armageddon
EXTD=
EXTT0=
EXTT1=
EXTT2=
EXTT3=
EXTT4=
EXTT5=
EXTT6=
PLAYORDER=
